<svg width="440" height="91" viewBox="0 0 440 91" fill="none" xmlns="http://www.w3.org/2000/svg">
<path d="M47.4399 77.896L0.8479 57.96V43.176L47.4399 23.128V35.672L10.8159 50.568L47.4399 65.464V77.896Z" fill="#2D57D9"/>
<path d="M83.307 0.0559998H95.179L72.443 90.216H60.571L83.307 0.0559998Z" fill="#2D57D9"/>
<path d="M125.164 24.36C125.612 24.36 126.396 24.472 127.516 24.696C128.71 24.8453 130.092 24.9947 131.66 25.144V13.72L127.18 12.04V5.544C127.18 5.544 127.665 5.46933 128.636 5.32C129.681 5.17067 130.988 4.984 132.556 4.76C134.124 4.536 135.692 4.312 137.26 4.088C138.902 3.864 140.321 3.67733 141.516 3.528C142.785 3.37867 143.569 3.304 143.868 3.304C144.166 3.304 144.652 3.60267 145.324 4.2C145.996 4.79733 146.63 5.46933 147.228 6.216C147.825 6.888 148.124 7.37333 148.124 7.672L147.452 28.28V67.928L152.044 69.608V75.992C152.044 75.992 151.297 76.104 149.804 76.328C148.385 76.552 146.705 76.8133 144.764 77.112C142.822 77.4853 141.03 77.7467 139.388 77.896C137.745 78.12 136.737 78.232 136.364 78.232C136.14 78.232 135.654 77.9333 134.908 77.336C134.236 76.7387 133.601 76.104 133.004 75.432C132.406 74.6853 132.108 74.1627 132.108 73.864V70.84C131.062 71.6613 129.756 72.6693 128.188 73.864C126.62 74.984 125.201 75.992 123.932 76.888C122.737 77.784 122.028 78.232 121.804 78.232C117.921 78.232 114.524 77.2987 111.612 75.432C108.774 73.4907 106.534 70.728 104.892 67.144C103.324 63.56 102.54 59.192 102.54 54.04C102.54 50.456 102.801 47.0587 103.324 43.848C103.921 40.6373 104.593 38.136 105.34 36.344C106.086 35.5227 107.356 34.4773 109.148 33.208C111.014 31.864 112.993 30.52 115.084 29.176C117.249 27.832 119.265 26.712 121.132 25.816C122.998 24.8453 124.342 24.36 125.164 24.36ZM122.588 32.312C121.99 32.6107 121.43 33.5067 120.908 35C120.46 36.4933 120.124 38.696 119.9 41.608C119.676 44.4453 119.564 48.104 119.564 52.584C119.564 55.4213 119.825 57.9227 120.348 60.088C120.87 62.2533 121.505 63.9707 122.252 65.24C122.998 66.4347 123.782 67.032 124.604 67.032C124.828 67.032 125.276 66.8827 125.948 66.584C126.694 66.2107 127.478 65.8373 128.3 65.464C129.196 65.0907 129.942 64.7547 130.54 64.456C131.137 64.0827 131.436 63.896 131.436 63.896V35.56C130.764 35.1867 129.793 34.7387 128.524 34.216C127.329 33.6187 126.172 33.096 125.052 32.648C123.932 32.2 123.11 32.088 122.588 32.312Z" fill="#2D57D9"/>
<path d="M173.254 52.808C173.254 56.0933 173.627 58.7813 174.374 60.872C175.195 62.9627 176.203 64.4933 177.398 65.464C178.592 66.4347 179.862 66.92 181.206 66.92C181.28 66.92 181.952 66.8827 183.222 66.808C184.566 66.7333 186.171 66.6587 188.038 66.584C189.904 66.5093 191.734 66.4347 193.526 66.36C195.318 66.2853 196.774 66.2107 197.894 66.136V72.856C196.848 73.1547 195.355 73.64 193.414 74.312C191.472 74.9093 189.456 75.5067 187.366 76.104C185.275 76.7013 183.371 77.1867 181.654 77.56C180.011 78.008 178.854 78.232 178.182 78.232C173.926 78.232 170.155 77.2987 166.87 75.432C163.659 73.5653 161.158 70.84 159.366 67.256C157.648 63.672 156.79 59.3413 156.79 54.264C156.79 50.68 157.051 47.2827 157.574 44.072C158.171 40.7867 158.843 38.2853 159.59 36.568C160.336 35.672 161.606 34.552 163.398 33.208C165.264 31.864 167.28 30.52 169.446 29.176C171.686 27.832 173.739 26.712 175.606 25.816C177.472 24.8453 178.816 24.36 179.638 24.36C183.968 24.36 187.627 25.144 190.614 26.712C193.675 28.2053 195.952 30.9307 197.446 34.888C199.014 38.8453 199.723 44.52 199.574 51.912L166.982 55.384V48.776L184.118 45.64C184.192 41.7573 183.856 38.6587 183.11 36.344C182.438 34.0293 181.243 32.7227 179.526 32.424C179.152 32.3493 178.592 32.2747 177.846 32.2C177.099 32.1253 176.539 32.2 176.166 32.424C175.344 32.9467 174.635 35 174.038 38.584C173.515 42.0933 173.254 46.8347 173.254 52.808Z" fill="#2D57D9"/>
<path d="M220.144 78.344C219.995 78.344 219.584 78.12 218.912 77.672C218.24 77.2987 217.904 77.112 217.904 77.112L206.816 34.664L202 33.32V26.712C202 26.712 202.672 26.6 204.016 26.376C205.435 26.152 207.077 25.8907 208.944 25.592C210.885 25.2933 212.64 25.032 214.208 24.808C215.776 24.5093 216.672 24.36 216.896 24.36C217.12 24.36 217.643 24.6213 218.464 25.144C219.285 25.6667 220.069 26.264 220.816 26.936C221.563 27.608 221.973 28.1307 222.048 28.504L227.2 54.04L228.432 63.56H229.664L236.832 33.88L229.776 32.984V25.816C229.776 25.816 230.336 25.7787 231.456 25.704C232.651 25.5547 234.107 25.4053 235.824 25.256C237.616 25.1067 239.371 24.9947 241.088 24.92C242.88 24.7707 244.411 24.6587 245.68 24.584C246.949 24.4347 247.696 24.36 247.92 24.36C248.219 24.36 248.629 24.7333 249.152 25.48C249.749 26.152 250.272 26.8987 250.72 27.72C251.243 28.5413 251.504 29.1387 251.504 29.512L236.832 76.216C236.832 76.216 236.309 76.2907 235.264 76.44C234.219 76.5893 232.875 76.776 231.232 77C229.664 77.1493 228.059 77.336 226.416 77.56C224.773 77.784 223.355 77.9707 222.16 78.12C220.965 78.2693 220.293 78.344 220.144 78.344Z" fill="#2D57D9"/>
<path d="M262.736 78.232C262.438 78.232 261.878 77.9333 261.056 77.336C260.235 76.7387 259.451 76.0667 258.704 75.32C258.032 74.5733 257.696 74.0507 257.696 73.752V13.72L253.104 12.04V5.544C253.104 5.544 253.59 5.46933 254.56 5.32C255.531 5.17067 256.763 4.984 258.256 4.76C259.824 4.536 261.392 4.312 262.96 4.088C264.528 3.864 265.91 3.67733 267.104 3.528C268.299 3.37867 269.083 3.304 269.456 3.304C269.755 3.304 270.203 3.60267 270.8 4.2C271.472 4.79733 272.107 5.46933 272.704 6.216C273.376 6.888 273.712 7.37333 273.712 7.672V67.816L278.08 69.496V75.88C278.08 75.88 277.371 76.0293 275.952 76.328C274.608 76.552 272.966 76.8133 271.024 77.112C269.158 77.4107 267.403 77.672 265.76 77.896C264.118 78.12 263.11 78.232 262.736 78.232Z" fill="#2D57D9"/>
<path d="M300.142 78.232C296.11 78.232 292.862 77.5227 290.398 76.104C288.008 74.6853 286.216 72.744 285.022 70.28C283.902 67.816 283.342 65.0907 283.342 62.104C283.342 60.3867 283.491 58.632 283.79 56.84C284.163 55.048 284.686 53.256 285.358 51.464L299.582 56.952C299.358 57.5493 299.171 58.2587 299.022 59.08C298.872 59.9013 298.798 60.6853 298.798 61.432C298.798 62.8507 299.059 64.1947 299.582 65.464C300.179 66.6587 301.187 67.256 302.606 67.256C303.278 67.256 304.062 67.0693 304.958 66.696C305.854 66.248 306.824 65.7253 307.87 65.128C308.99 64.456 310.11 63.784 311.23 63.112V69.832C309.96 70.8027 308.504 71.96 306.862 73.304C305.219 74.648 303.763 75.8053 302.494 76.776C301.224 77.7467 300.44 78.232 300.142 78.232ZM285.358 51.464L310.11 48.552V55.272L298.238 58.072L285.358 51.464ZM286.478 35.224L289.166 25.032C291.555 24.808 294.019 24.6587 296.558 24.584C299.096 24.4347 301.598 24.36 304.062 24.36C306.526 24.36 308.728 24.5467 310.67 24.92C311.79 25.0693 313.171 25.816 314.814 27.16C316.456 28.4293 318.062 29.96 319.63 31.752C321.272 33.4693 322.616 35.224 323.662 37.016C324.707 38.808 325.23 40.264 325.23 41.384V67.928L329.822 69.608V75.992C328.03 76.2907 325.976 76.6267 323.662 77C321.422 77.3733 319.406 77.672 317.614 77.896C315.822 78.12 314.627 78.232 314.03 78.232C313.806 78.232 313.358 77.9333 312.686 77.336C312.014 76.7387 311.379 76.104 310.782 75.432C310.184 74.6853 309.886 74.1627 309.886 73.864V70.392L309.214 69.496V43.512C309.214 41.3467 308.878 39.8533 308.206 39.032C307.608 38.136 306.339 37.6507 304.398 37.576C302.979 37.4267 301.299 37.352 299.358 37.352C297.416 37.352 295.438 37.3893 293.422 37.464C291.48 37.5387 289.726 37.6133 288.158 37.688L286.478 35.224Z" fill="#2D57D9"/>
<path d="M362.42 24.36C365.332 24.36 367.945 24.92 370.26 26.04C372.649 27.16 374.665 28.8027 376.308 30.968C378.025 33.1333 379.332 35.7467 380.228 38.808C381.198 41.8693 381.684 45.3787 381.684 49.336C381.684 52.7707 381.385 56.056 380.788 59.192C380.19 62.2533 379.518 64.6053 378.772 66.248C378.025 67.144 376.756 68.264 374.964 69.608C373.172 70.952 371.193 72.296 369.028 73.64C366.862 74.9093 364.846 75.992 362.98 76.888C361.113 77.784 359.769 78.232 358.948 78.232C358.574 78.232 357.417 78.0827 355.476 77.784C353.609 77.4853 351.444 77.1493 348.98 76.776C346.516 76.328 344.126 75.9173 341.812 75.544C339.572 75.096 337.854 74.76 336.66 74.536V13.72L332.068 12.152V5.656C332.964 5.50667 334.233 5.32 335.876 5.096C337.518 4.79733 339.198 4.536 340.916 4.312C342.708 4.088 344.276 3.90133 345.62 3.752C347.038 3.528 347.972 3.416 348.42 3.416C348.718 3.416 349.166 3.71467 349.764 4.312C350.436 4.90933 351.07 5.58133 351.668 6.328C352.34 7 352.676 7.48533 352.676 7.784L351.892 31.416L352.564 31.528C353.684 30.7067 354.953 29.736 356.372 28.616C357.865 27.496 359.172 26.5253 360.292 25.704C361.486 24.808 362.196 24.36 362.42 24.36ZM359.508 35.672C359.284 35.672 358.686 35.896 357.716 36.344C356.82 36.792 355.849 37.2773 354.804 37.8C353.758 38.248 353.049 38.584 352.676 38.808V67.144C353.646 67.6667 354.729 68.2267 355.924 68.824C357.118 69.4213 358.238 69.8693 359.284 70.168C360.404 70.4667 361.188 70.5413 361.636 70.392C362.233 70.0187 362.756 69.16 363.204 67.816C363.652 66.3973 363.988 64.3067 364.212 61.544C364.51 58.7067 364.66 55.1227 364.66 50.792C364.66 47.88 364.398 45.2667 363.876 42.952C363.353 40.6373 362.681 38.8453 361.86 37.576C361.113 36.3067 360.329 35.672 359.508 35.672Z" fill="#2D57D9"/>
<path d="M393.395 23.128L439.987 43.176V57.96L393.395 77.896V65.464L429.907 50.568L393.395 35.672V23.128Z" fill="#2D57D9"/>
</svg>
